<svg class="Lockup_vector__qleKW" xmlns="http://www.w3.org/2000/svg" viewBox="0 0 396 108"><title>Origin</title><path d="M94.37 68.91c-1.31-4.99-2.83-10.08-4.62-15.33a17.784 17.784 0 0 1 0-11.44c1.78-5.25 3.3-10.39 4.62-15.33C97.41 14.11 80.78-2.63 68.09.46c-4.88 1.26-9.86 2.78-14.95 4.51a17.754 17.754 0 0 1-11.43 0C36.52 3.13 31.53 1.61 26.66.35 13.91-2.68-2.72 14.01.38 26.71 1.69 31.7 3.21 36.79 5 42.04c1.26 3.67 1.26 7.77 0 11.44A243.43 243.43 0 0 0 .38 68.81c-3.04 12.7 13.59 29.44 26.28 26.35 4.88-1.26 9.86-2.78 14.95-4.51 3.67-1.26 7.76-1.26 11.43 0 5.14 1.73 10.12 3.25 14.95 4.51 12.8 3.15 29.43-13.54 26.38-26.24Zm-47 12.23c-18.41 0-33.31-14.91-33.31-33.33s14.9-33.33 33.31-33.33 33.31 14.91 33.31 33.33-14.9 33.33-33.31 33.33ZM165.92 82.18c3.92 0 7.27-.91 10.07-2.73 2.87-1.82 5.21-4.23 7.03-7.24 1.82-3.01 3.15-6.4 3.99-10.18.91-3.85 1.36-7.77 1.36-11.76 0-4.48-.66-8.85-1.99-13.12-1.26-4.34-3.01-8.15-5.25-11.44-2.24-3.29-4.93-5.95-8.08-7.98-3.15-2.03-6.54-3.04-10.18-3.04-3.92 0-7.31.87-10.18 2.62-2.8 1.75-5.14 4.09-7.03 7.03-1.82 2.87-3.18 6.19-4.09 9.97-.91 3.71-1.36 7.59-1.36 11.65s.56 8.15 1.68 12.49c1.12 4.27 2.73 8.15 4.83 11.65 2.17 3.5 4.86 6.4 8.08 8.71 3.22 2.24 6.92 3.36 11.12 3.36Zm-1.68-70.75c5.73 0 10.84 1.05 15.32 3.15 4.55 2.03 8.32 4.69 11.33 7.98 3.08 3.29 5.42 7.07 7.03 11.34 1.61 4.2 2.41 8.43 2.41 12.7 0 6.16-1.01 11.65-3.04 16.48-1.96 4.83-4.58 8.89-7.87 12.18-3.29 3.29-7.13 5.81-11.54 7.56-4.34 1.75-8.85 2.62-13.53 2.62s-9.34-.87-13.74-2.62c-4.34-1.75-8.15-4.23-11.43-7.45-3.29-3.22-5.91-7.1-7.87-11.65-1.96-4.55-2.94-9.62-2.94-15.22s.98-10.78 2.94-15.33c2.03-4.62 4.68-8.5 7.97-11.65 3.29-3.22 7.1-5.7 11.43-7.45 4.34-1.75 8.85-2.62 13.53-2.62ZM205.81 80.6l6.4-2.1V42.39l-6.61-3.57v-1.36l15-5.56h.52l.32 13.54h.42l1.26-2.2c1.33-2.38 2.52-4.3 3.57-5.77 1.05-1.54 2.03-2.73 2.94-3.57.98-.84 1.92-1.4 2.83-1.68.91-.35 1.89-.52 2.94-.52 1.61 0 2.94.49 3.99 1.47 1.12.91 1.68 2.17 1.68 3.78 0 1.47-.35 2.69-1.05 3.67-.7.98-1.64 1.85-2.83 2.62l-7.03-2.73c-1.05.28-2.41 1.29-4.09 3.04-1.61 1.75-2.94 3.95-3.99 6.61V78.5l8.08 2.1v2.31h-24.34V80.6ZM241.92 80.6l6.4-2.1V42.39l-6.19-3.57v-1.47l16.05-5.46V78.5l7.24 2.1v2.31h-23.5V80.6Zm10.7-61.41c-1.82 0-3.43-.66-4.83-1.99-1.33-1.33-1.99-2.9-1.99-4.72s.66-3.29 1.99-4.62c1.4-1.33 3.01-1.99 4.83-1.99 1.68 0 3.18.66 4.51 1.99 1.4 1.33 2.1 2.87 2.1 4.62s-.7 3.39-2.1 4.72c-1.33 1.33-2.83 1.99-4.51 1.99ZM302.44 38.09v.31c1.4 1.4 2.62 3.01 3.67 4.83 1.12 1.75 1.68 3.85 1.68 6.3 0 2.66-.56 5.07-1.68 7.24a17.77 17.77 0 0 1-4.51 5.46c-1.89 1.54-4.06 2.73-6.5 3.57-2.38.84-4.86 1.26-7.45 1.26-3.22 0-6.22-.59-9.02-1.78-.7.77-1.26 1.54-1.68 2.31-.42.77-.63 1.61-.63 2.52 0 1.05.42 1.92 1.26 2.62.91.63 2.17 1.01 3.78 1.15l20.04 1.26c4.48.35 7.83 1.54 10.07 3.57 2.24 1.96 3.36 4.44 3.36 7.45 0 2.8-.84 5.49-2.52 8.08-1.61 2.66-3.85 5-6.71 7.03-2.8 2.03-6.05 3.64-9.76 4.83-3.71 1.26-7.59 1.89-11.64 1.89-5.46 0-9.86-1.08-13.22-3.25-3.36-2.1-5.04-5.25-5.04-9.45 0-2.38.94-4.62 2.83-6.72 1.89-2.03 4.16-3.74 6.82-5.14l1.15-.52v-.42c-.91-.07-1.85-.24-2.83-.52-.91-.35-1.75-.8-2.52-1.36-.7-.63-1.29-1.4-1.78-2.31-.49-.98-.74-2.1-.74-3.36 0-1.89.74-3.71 2.2-5.46 1.47-1.82 3.22-3.57 5.25-5.25v-.21c-2.24-1.4-4.09-3.25-5.56-5.56-1.4-2.31-2.1-5.14-2.1-8.5 0-2.73.49-5.18 1.47-7.35 1.05-2.24 2.45-4.13 4.2-5.67 1.75-1.61 3.78-2.83 6.08-3.67 2.38-.91 4.93-1.36 7.66-1.36 2.31 0 4.34.28 6.08.84 1.82.49 3.85 1.12 6.08 1.89l14.79-1.68v5.98l-12.59-.84Zm-22.66 44.93c-1.05 1.05-2.03 2.31-2.94 3.78-.91 1.54-1.36 3.43-1.36 5.67 0 3.29 1.22 5.91 3.67 7.87s6.08 2.94 10.91 2.94c3.01 0 5.6-.42 7.76-1.26 2.17-.77 3.92-1.78 5.24-3.04 1.33-1.19 2.31-2.52 2.94-3.99.63-1.4.94-2.73.94-3.99 0-1.75-.6-3.22-1.78-4.41-1.12-1.12-2.62-1.85-4.51-2.2l-20.88-1.36Zm-1.36-36.64c.07 5.46 1.01 9.76 2.83 12.91 1.89 3.15 4.48 4.72 7.76 4.72 2.45 0 4.55-1.08 6.29-3.25 1.75-2.24 2.62-5.25 2.62-9.03-.07-5.81-1.15-10.11-3.25-12.91-2.1-2.8-4.62-4.2-7.55-4.2s-4.97 1.08-6.5 3.25c-1.47 2.17-2.2 5-2.2 8.5ZM316.51 80.6l6.4-2.1V42.39l-6.19-3.57v-1.47l16.05-5.46V78.5l7.24 2.1v2.31h-23.5V80.6Zm10.7-61.41c-1.82 0-3.43-.66-4.83-1.99-1.33-1.33-1.99-2.9-1.99-4.72s.67-3.29 1.99-4.62c1.4-1.33 3.01-1.99 4.83-1.99 1.68 0 3.18.66 4.51 1.99 1.4 1.33 2.1 2.87 2.1 4.62s-.7 3.39-2.1 4.72c-1.33 1.33-2.83 1.99-4.51 1.99ZM341.66 80.6l6.4-2.1V42.39l-6.61-3.57v-1.36l15-5.56h.52l.52 9.66h.21c.49-.56 1.33-1.36 2.52-2.41 1.19-1.12 2.55-2.2 4.09-3.25 1.61-1.05 3.39-1.96 5.35-2.73 1.96-.84 3.99-1.26 6.08-1.26 2.24 0 4.2.31 5.88.94 1.75.56 3.18 1.54 4.3 2.94 1.19 1.33 2.06 3.11 2.62 5.35.63 2.24.94 5 .94 8.29v29.08l6.5 2.2v2.2h-22.66V80.6l6.29-2.1V49.42c-.21-3.08-1.01-5.6-2.41-7.56-1.4-2.03-3.81-3.04-7.24-3.04-1.26 0-2.52.21-3.78.63s-2.41.94-3.46 1.57a21.79 21.79 0 0 0-2.83 1.78c-.84.56-1.5 1.05-1.99 1.47v34.22l6.61 2.1v2.31h-22.87v-2.31Z" fill="currentcolor"></path></svg>